<?xml version="1.0" encoding="UTF-8"?>
<svg width="143px" height="116px" viewBox="0 0 143 116" version="1.1" xmlns="http://www.w3.org/2000/svg" xmlns:xlink="http://www.w3.org/1999/xlink">
    <!-- Generator: Sketch 43.1 (39012) - http://www.bohemiancoding.com/sketch -->
    <title>Icon 1</title>
    <desc>Created with Sketch.</desc>
    <defs>
        <rect id="path-1" x="72" y="59" width="42" height="42" rx="9"></rect>
        <rect id="path-2" x="30" y="3" width="55" height="99" rx="9"></rect>
    </defs>
    <g id="Screens---Source-Sans-Pro" stroke="none" stroke-width="1" fill="none" fill-rule="evenodd">
        <g id="30---First-Touch-with-App" transform="translate(-318.000000, -265.000000)">
            <g id="Get-Started" transform="translate(205.000000, 214.000000)">
                <g id="1">
                    <g id="Icon-1" transform="translate(113.000000, 51.000000)">
                        <path d="M41.862,101 C26.892,91.172 17,74.246 17,55 C17,24.624 41.624,0 72,0 C102.375,0 127,24.624 127,55 C127,74.246 117.107,91.172 102.137,101 L41.862,101 Z" id="Base" fill="#C2EAFC"></path>
                        <path d="M72,19 C91.33,19 107,34.67 107,54 C107,73.33 91.33,89 72,89 C52.67,89 37,73.33 37,54 C37,34.67 52.67,19 72,19" id="Lighter-Base" fill="#D8F1FD"></path>
                        <path d="M116.5,99 L22.5,99 C21.672,99 21,99.672 21,100.5 C21,101.328 21.672,102 22.5,102 L116.5,102 C117.328,102 118,101.328 118,100.5 C118,99.672 117.328,99 116.5,99 M121.5,99 C120.672,99 120,99.672 120,100.5 C120,101.328 120.672,102 121.5,102 C122.328,102 123,101.328 123,100.5 C123,99.672 122.328,99 121.5,99" id="Lines" fill="#354052"></path>
                        <path d="M91.5,106 L37.5,106 C36.672,106 36,106.672 36,107.5 C36,108.328 36.672,109 37.5,109 L91.5,109 C92.328,109 93,108.328 93,107.5 C93,106.672 92.328,106 91.5,106 M103.5,106 L96.5,106 C95.672,106 95,106.672 95,107.5 C95,108.328 95.672,109 96.5,109 L103.5,109 C104.328,109 105,108.328 105,107.5 C105,106.672 104.328,106 103.5,106 M81.5,113 L47.5,113 C46.672,113 46,113.672 46,114.5 C46,115.328 46.672,116 47.5,116 L81.5,116 C82.328,116 83,115.328 83,114.5 C83,113.672 82.328,113 81.5,113 M89.5,113 L86.5,113 C85.672,113 85,113.672 85,114.5 C85,115.328 85.672,116 86.5,116 L89.5,116 C90.328,116 91,115.328 91,114.5 C91,113.672 90.328,113 89.5,113" id="Lines" fill="#00AAFF"></path>
                        <g id="Icon-Base">
                            <use fill="#EDF9FE" fill-rule="evenodd" xlink:href="#path-1"></use>
                            <rect stroke="#354052" stroke-width="3" x="73.5" y="60.5" width="39" height="39" rx="9"></rect>
                        </g>
                        <path d="M101,88 L83,88 L83,87.91 C80.163,87.433 78,84.972 78,82 C78,78.686 80.686,76 84,76 C84.667,76 85.305,76.113 85.904,76.314 C87.238,73.752 89.912,72 93,72 C97.418,72 101,75.582 101,80 C103.209,80 105,81.791 105,84 C105,86.209 103.209,88 101,88" id="Cloud" fill="#00AAFF"></path>
                        <g id="Phone-Base">
                            <use fill="#EDF9FE" fill-rule="evenodd" xlink:href="#path-2"></use>
                            <rect stroke="#354052" stroke-width="3" x="31.5" y="4.5" width="52" height="96" rx="9"></rect>
                        </g>
                        <rect id="Icon-Part" fill="#FFFFFF" x="33" y="19" width="49" height="64"></rect>
                        <rect id="Icon-Part" fill="#354052" x="34" y="16" width="6" height="3" rx="1.5"></rect>
                        <rect id="Icon-Part" fill="#354052" x="41" y="16" width="43" height="3" rx="1.5"></rect>
                        <rect id="Icon-Part" fill="#354052" x="34" y="83" width="6" height="3" rx="1.5"></rect>
                        <rect id="Icon-Part" fill="#354052" x="41" y="83" width="43" height="3" rx="1.5"></rect>
                        <path d="M32.9151755,47.5044569 C32.9701514,47.3483027 33,47.1802537 33,47.0051863 L33,41 L33,42.0006117 C33,42.8299642 32.3342028,43.5022873 31.5,43.5022873 C30.6715729,43.5022873 30,42.8310979 30,42.0006117 L30,41 L30,47.0051863 C30,47.1794987 30.0299484,47.3469531 30.084998,47.5026725 C30.2898065,46.9198078 30.8426124,46.5022873 31.5,46.5022873 C32.1536689,46.5022873 32.7096807,46.9201678 32.9151755,47.5044569 Z" id="Icon-Part" fill="#EDF9FE"></path>
                        <rect id="Icon-Part" fill="#BFC7D2" x="54" y="10" width="7" height="2" rx="1"></rect>
                        <circle id="Icon-Part" fill="#00AAFF" cx="57.5" cy="92.5" r="3.5"></circle>
                        <path d="M141.4999,74 C140.6719,74 139.9999,74.672 139.9999,75.5 C139.9999,76.328 140.6719,77 141.4999,77 C142.3279,77 142.9999,76.328 142.9999,75.5 C142.9999,74.672 142.3279,74 141.4999,74 M133.9999,16 L132.9999,16 L132.9999,15 C132.9999,14.448 132.5519,14 131.9999,14 C131.4479,14 130.9999,14.448 130.9999,15 L130.9999,16 L129.9999,16 C129.4479,16 128.9999,16.448 128.9999,17 C128.9999,17.552 129.4479,18 129.9999,18 L130.9999,18 L130.9999,19 C130.9999,19.552 131.4479,20 131.9999,20 C132.5519,20 132.9999,19.552 132.9999,19 L132.9999,18 L133.9999,18 C134.5519,18 134.9999,17.552 134.9999,17 C134.9999,16.448 134.5519,16 133.9999,16 M4.9999,68 L3.9999,68 L3.9999,67 C3.9999,66.448 3.5519,66 2.9999,66 C2.4479,66 1.9999,66.448 1.9999,67 L1.9999,68 L0.9999,68 C0.4479,68 -0.0001,68.448 -0.0001,69 C-0.0001,69.552 0.4479,70 0.9999,70 L1.9999,70 L1.9999,71 C1.9999,71.552 2.4479,72 2.9999,72 C3.5519,72 3.9999,71.552 3.9999,71 L3.9999,70 L4.9999,70 C5.5519,70 5.9999,69.552 5.9999,69 C5.9999,68.448 5.5519,68 4.9999,68" id="Decoration" fill="#BFC7D2"></path>
                    </g>
                </g>
            </g>
        </g>
    </g>
</svg>