<?xml version="1.0" encoding="UTF-8"?>
<svg width="50px" height="50px" viewBox="0 0 50 50" version="1.1" xmlns="http://www.w3.org/2000/svg" xmlns:xlink="http://www.w3.org/1999/xlink">
    <!-- Generator: Sketch 48.2 (47327) - http://www.bohemiancoding.com/sketch -->
    <title>Icon</title>
    <desc>Created with Sketch.</desc>
    <defs>
        <path d="M25,50 C38.8071187,50 50,38.8071187 50,25 C50,11.1928813 38.8071187,0 25,0 C11.1928813,0 0,11.1928813 0,25 C0,38.8071187 11.1928813,50 25,50 Z" id="path-1"></path>
    </defs>
    <g id="P9---Achievements" stroke="none" stroke-width="1" fill="none" fill-rule="evenodd" transform="translate(-505.000000, -628.000000)">
        <g id="Medal-#4" transform="translate(475.000000, 628.000000)">
            <g id="Icon" transform="translate(30.000000, 0.000000)">
                <mask id="mask-2" fill="white">
                    <use xlink:href="#path-1"></use>
                </mask>
                <g id="Base">
                    <use fill="#FAF5D3" fill-rule="evenodd" xlink:href="#path-1"></use>
                    <path stroke="#E0B124" stroke-width="3" d="M25,48.5 C37.9786916,48.5 48.5,37.9786916 48.5,25 C48.5,12.0213084 37.9786916,1.5 25,1.5 C12.0213084,1.5 1.5,12.0213084 1.5,25 C1.5,37.9786916 12.0213084,48.5 25,48.5 Z"></path>
                </g>
                <path d="M34.0107,27 L34.0107,13 L31.0107,13 L31.0107,15 L28.0107,15 L28.0107,13 L25.0107,13 L25.0107,15 L22.0107,15 L22.0107,13 L19.0107,13 L19.0107,36.424 C35.0297,34.421 33.4777,33.543 33.0107,32 C32.4367,30.104 25.0107,26 25.0107,26 L25.0107,20 L29.0107,20 L29.0107,26 L25.0107,26 C25.0107,26 26.7767,26.089 30.0107,26 C33.2447,28.103 39.7207,32.581 38.0107,34 C32.0837,39.303 20.2207,42.664 14.0107,44.136 L14.0107,45 L27.0107,49 L39.0107,48 L40.0107,44 L40.0107,33 C40.0107,31.812 34.0107,27 34.0107,27 M5.0107,38 C10.2487,37.454 14.5127,36.976 18.0107,36.547 L18.0107,13.4 L14.0107,15 L14.0107,35.787 C10.9127,36.153 7.2907,36.553 3.0107,37 C2.7307,37.266 8.0107,44 8.0107,44 C8.0107,44 8.3957,43.929 9.0717,43.789 C7.5687,41.84 4.8057,38.195 5.0107,38" fill="#E0B124" mask="url(#mask-2)"></path>
                <path d="M-3.171,-22.9994 L-6,-20.1714 L44.205,30.0336 L47.034,27.2056 L-3.171,-22.9994 Z M-5.242,8.0716 L44.963,58.2756 L56.276,46.9626 L6.071,-3.2424 L-5.242,8.0716 Z" id="Shine" fill="#FFFFFF" opacity="0.199999988" mask="url(#mask-2)"></path>
            </g>
        </g>
    </g>
</svg>